<mxfile host="app.diagrams.net" modified="2024-02-18T12:52:21.331Z" agent="Mozilla/5.0 (Windows NT 10.0; Win64; x64) AppleWebKit/537.36 (KHTML, like Gecko) Chrome/121.0.0.0 Safari/537.36 Edg/121.0.0.0" version="23.1.5" etag="RSFAYBw4uJSu8SJDkGHv" type="github">
  <diagram name="Page-1" id="V3zk7ij03KkqVmJuSIor">
    <mxGraphModel>
      <root>
        <mxCell id="0" />
        <mxCell id="1" parent="0" />
      </root>
    </mxGraphModel>
  </diagram>
</mxfile>
